<?xml version="1.0" encoding="iso-8859-1"?>
<!-- Uploaded to: SVG Repo, www.svgrepo.com, Generator: SVG Repo Mixer Tools -->
<!DOCTYPE svg PUBLIC "-//W3C//DTD SVG 1.1//EN" "http://www.w3.org/Graphics/SVG/1.1/DTD/svg11.dtd">
<svg fill="#000000" version="1.1" id="Capa_1" xmlns="http://www.w3.org/2000/svg" xmlns:xlink="http://www.w3.org/1999/xlink" 
	 width="800px" height="800px" viewBox="0 0 200.968 200.968"
	 xml:space="preserve">
<g>
	<path d="M183.222,84.276c2.917-3.015,3.759-11.688,0.662-12.159c-41.229-5.942-78.386,7.311-78.386,7.311
		c-13.222,5.92-23.745,0.268-23.745,0.268c-32.064-10.473-67.791-7.009-78.297-6.161c-2.449,0.208-3.009,2.348-3.121,3.573
		c-0.78,5.45-0.252,6.78,2.112,8.508c7.216,5.297,6.932,10.491,7.698,14.479c3.347,17.204,7.01,20.613,10.468,23.715
		c7.771,6.966,26.835,7.389,36.32,5.822c14.4-2.358,22.211-14.57,25.354-22.451c3.952-10.112,6.394-13.018,9.144-14.025
		c6.636-2.407,9.987,5.434,11.425,8.74c7.599,16.979,14.843,23.141,20.322,25.04c14.975,5.253,27.987,1.52,37.065-1.078
		c13.726-3.886,15.312-20.152,16.416-28.225C178.271,85.579,180.62,86.925,183.222,84.276z M73.856,102.552
		c-6.971,20.915-19.68,19.629-28.314,19.193c-19.526-0.976-22.731-6.519-24.725-13.338c-6.187-21.148,1.866-25.778,6.504-25.707
		C79.392,83.335,76.781,93.759,73.856,102.552z M165.03,108.408c-1.998,6.824-5.211,12.362-24.728,13.338
		c-8.637,0.436-21.348,1.722-28.313-19.193c-2.923-8.786-5.538-19.21,46.533-19.852C163.157,82.624,171.211,87.259,165.03,108.408z
		 M155.824,107.199c0.607,0.608,0.607,1.599,0,2.211c-0.306,0.307-0.711,0.459-1.103,0.459c-0.401,0-0.807-0.146-1.107-0.459
		l-14.31-14.304l-14.315,14.304c-0.606,0.607-1.603,0.607-2.215,0c-0.606-0.607-0.606-1.598,0-2.211l15.414-15.42
		c0.607-0.607,1.605-0.607,2.217,0L155.824,107.199z M63.077,107.199c0.61,0.608,0.61,1.599,0,2.211
		c-0.303,0.307-0.705,0.459-1.106,0.459c-0.396,0-0.801-0.146-1.103-0.459L46.558,95.106L32.245,109.41
		c-0.61,0.607-1.599,0.607-2.213,0c-0.609-0.607-0.609-1.598,0-2.211l15.417-15.42c0.61-0.607,1.602-0.607,2.22,0L63.077,107.199z
		 M179.342,116.852h8.669v1.285h-3.58v10.42H182.9v-10.42h-3.558V116.852z M200.968,128.567h-1.476l-0.298-5.139
		c-0.085-1.641-0.191-3.601-0.174-5.062h-0.05c-0.397,1.376-0.887,2.847-1.481,4.454l-2.068,5.686h-1.14l-1.894-5.587
		c-0.562-1.646-1.034-3.157-1.355-4.553h-0.038c-0.032,1.473-0.122,3.421-0.219,5.183l-0.317,5.018h-1.446l0.826-11.715h1.927
		l1.991,5.674c0.48,1.438,0.886,2.726,1.182,3.94h0.055c0.29-1.183,0.706-2.457,1.227-3.94l2.089-5.674h1.933L200.968,128.567z"/>
</g>
</svg>