<?xml version="1.0" encoding="iso-8859-1"?>
<!-- Uploaded to: SVG Repo, www.svgrepo.com, Generator: SVG Repo Mixer Tools -->
<!DOCTYPE svg PUBLIC "-//W3C//DTD SVG 1.1//EN" "http://www.w3.org/Graphics/SVG/1.1/DTD/svg11.dtd">
<svg fill="#000000" version="1.1" id="Capa_1" xmlns="http://www.w3.org/2000/svg" xmlns:xlink="http://www.w3.org/1999/xlink" 
	 width="800px" height="800px" viewBox="0 0 168.105 168.105"
	 xml:space="preserve">
<g>
	<path d="M88.338,49.828c-1.306-1.149-8.143-1.138-8.922,0c-1.562,0-4.207-5.475-3.619-6.395
		c-2.605,3.133-5.005,15.067-2.706,22.425c-14.271,0-41.515-12.58-58.151-26.017c-5.722,6.533-27.284,45.757-5.188,88.487
		c1.657-13.613,12.471-22.824,21.831-13.696c0.087-7.349,10.571-21.538,21.581-7.306c8.154-23.89,30.961,2.277,30.854,17.353
		c0-14.96,21.646-41.051,30.638-17.353c3.937-9.182,19.77-8.645,20.979,7.306c7.493-4.661,20.181-2.232,20.181,12.783
		c6.946-2.39,25.02-51.708-2.406-87.64c-10.612,7.775-38.196,26.076-57.972,26.076c1.444-9.715-1.396-18.927-3.207-22.424
		C91.871,45.894,89.769,49.828,88.338,49.828z"/>
</g>
</svg>