<?xml version="1.0" encoding="iso-8859-1"?>
<!-- Uploaded to: SVG Repo, www.svgrepo.com, Generator: SVG Repo Mixer Tools -->
<svg height="800px" width="800px" version="1.1" id="Capa_1" xmlns="http://www.w3.org/2000/svg" xmlns:xlink="http://www.w3.org/1999/xlink" 
	 viewBox="0 0 50.03 50.03" xml:space="preserve">
<g>
	<path style="fill:#030104;" d="M45.614,23.52c-0.215-0.23-0.551-0.423-0.912-0.56c-0.025-0.011,0-0.247,0-0.247v-7.422
		c0-1.346-0.266-3.504-0.848-4.719c-1.697-3.537-6.473-9.957-18.798-10.087h-0.082C12.65,0.616,7.872,7.035,6.177,10.572
		c-0.583,1.214-0.847,3.372-0.847,4.719l-0.045,7.422l0.023,0.237c-0.371,0.139-0.668,0.333-0.891,0.567
		c-1.406,1.502-3.991,5.381-4.414,13.873c-0.066,1.346,1.035,2.438,2.381,2.438h8.582l27.421,0.002h9.26
		c1.348,0,2.445-1.096,2.381-2.438C49.606,28.901,47.02,25.022,45.614,23.52z M12.719,33.33c0,0.674-0.544,1.217-1.218,1.217H7.386
		c-0.674,0-1.218-0.543-1.218-1.217v-4.117c0-0.672,0.544-1.219,1.218-1.219h4.115c0.674,0,1.218,0.547,1.218,1.219V33.33z
		 M22.722,33.33c0,0.674-0.544,1.217-1.218,1.217h-4.115c-0.674,0-1.218-0.543-1.218-1.217v-4.117c0-0.672,0.545-1.219,1.218-1.219
		h4.115c0.674,0,1.218,0.547,1.218,1.219V33.33z M25.02,22.715c-0.002,0-0.004,0-0.004,0c-0.002,0-0.004,0-0.006,0s-0.006,0-0.01,0
		c-0.144,0-0.987,0-2.107,0c-0.017,0-0.031,0-0.047,0H12.793c-1.348,0-2.438-1.091-2.438-2.438v-5.941
		c0,0,0.152-10.361,14.625-10.512h0.068c14.475,0.15,14.625,10.512,14.625,10.512v5.941c0,1.346-1.093,2.438-2.437,2.438H27.182
		c-0.02,0-0.031,0-0.047,0c-1.119,0-1.96,0-2.104,0C25.027,22.715,25.022,22.715,25.02,22.715z M32.725,33.33
		c0,0.674-0.545,1.217-1.219,1.217h-4.115c-0.674,0-1.217-0.543-1.217-1.217v-4.117c0-0.672,0.543-1.219,1.217-1.219h4.115
		c0.674,0,1.219,0.547,1.219,1.219V33.33L32.725,33.33z M42.729,33.33c0,0.674-0.545,1.217-1.219,1.217h-4.115
		c-0.674,0-1.219-0.543-1.219-1.217v-4.117c0-0.672,0.545-1.219,1.219-1.219h4.115c0.674,0,1.219,0.547,1.219,1.219L42.729,33.33
		L42.729,33.33z M4.786,40.885h40.457c0,1.379-1.267,2.658-3.426,3.727c0.579,0.254,0.946,0.619,0.946,1.024
		c0,0.776-1.33,1.405-2.97,1.405c-1.188,0-2.198-0.33-2.678-0.809c-2.613,0.646-5.713,1.092-9.094,1.258
		c0.221,0.192,0.355,0.416,0.355,0.652c0,0.773-1.329,1.404-2.97,1.404c-1.64,0-2.968-0.631-2.968-1.404
		c0-0.225,0.117-0.432,0.311-0.617c-2.567-0.096-4.987-0.349-7.174-0.729c-0.489,0.459-1.48,0.775-2.637,0.775
		c-1.64,0-2.968-0.633-2.968-1.408c0-0.246,0.146-0.477,0.383-0.68C6.914,44.286,4.786,42.668,4.786,40.885z"/>
</g>
</svg>