<?xml version="1.0" encoding="iso-8859-1"?>
<!-- Uploaded to: SVG Repo, www.svgrepo.com, Generator: SVG Repo Mixer Tools -->
<!DOCTYPE svg PUBLIC "-//W3C//DTD SVG 1.1//EN" "http://www.w3.org/Graphics/SVG/1.1/DTD/svg11.dtd">
<svg fill="#000000" version="1.1" id="Capa_1" xmlns="http://www.w3.org/2000/svg" xmlns:xlink="http://www.w3.org/1999/xlink" 
	 width="800px" height="800px" viewBox="0 0 174.869 174.868"
	 xml:space="preserve">
<g>
	<g>
		<path d="M157.721,92.021c-0.938,0-10.802,1.882-11.277,0.944c0,0,9.864-11.521,0.231-25.849c0,0-3.525-10.345,5.176-16.696
			c0,0-3.057,7.757,0.451,10.577c0,0,2.229,2.935-1.413,5.882c0,0-3.642,3.641,2.229,7.161c0,0,3.525,1.882,6.576-5.992
			l15.175-24.442c0,0-24.612-29.045-54.291-0.938c-5.73,5.425-14.578,15.515-15.047,27.736c0,0-47.711-6.345-57.113,7.52
			c0,0-16.688-21.391-34.55-10.808c0,0-9.404,2.813-13.868-4.238c0,0,0.155,18.779,19.966,16.721
			c0.387-0.049,0.785-0.098,1.184-0.146c20.914-2.819,15.394,13.281,27.149,8.817c0,0,16.105,17.865-0.594,17.865
			c-0.935,0-22.561,38.319-22.561,38.319h26.327c0,0,0-6.589-6.348-9.87c0,0-7.52-1.888,5.639-16.222c0,0,3.042,1.15,7.319,1.376
			c-5.057,8.787-9.67,16.965-9.67,16.965h26.33c0,0,0-6.576-6.354-9.871c0,0-4.652-1.169-0.204-8.665
			c3.072-1.242,6.147-3.343,8.829-6.74c3.982,0.821,11.305,1.442,17.899-2.813c8.421,3.775,19.948,6.887,31.305,3.185l-20.21,32.431
			h26.092c0,0,0.243-5.4-6.582-11.283c0,0-3.77-0.7,4.475-12.689l7.746-12.695c0,0,13.433-7.795,19.083-4.477
			c0.231,0.141,0.463,0.299,0.664,0.476c5.17,4.463-3.051,7.051-5.401,4.938l-0.938,21.859c0,0,12.215-5.17,13.64-18.328
			C164.772,111.999,176.561,92.021,157.721,92.021z"/>
	</g>
</g>
</svg>