<?xml version="1.0" encoding="iso-8859-1"?>
<!-- Uploaded to: SVG Repo, www.svgrepo.com, Generator: SVG Repo Mixer Tools -->
<!DOCTYPE svg PUBLIC "-//W3C//DTD SVG 1.1//EN" "http://www.w3.org/Graphics/SVG/1.1/DTD/svg11.dtd">
<svg fill="#000000" version="1.1" id="Capa_1" xmlns="http://www.w3.org/2000/svg" xmlns:xlink="http://www.w3.org/1999/xlink" 
	 width="800px" height="800px" viewBox="0 0 187.059 187.059"
	 xml:space="preserve">
<g>
	<path d="M171.254,23.543L160.55,8.972c-0.651-0.886-1.65-1.458-2.734-1.571c-1.071-0.113-2.149,0.173-2.983,0.886l-13.847,11.64
		C127.066,7.176,109.2,0,90.284,0c-41.495,0-75.21,33.752-75.21,75.234c0,60.541,69.998,109.108,72.985,111.13
		c0.685,0.463,1.452,0.694,2.226,0.694c0.804,0,1.608-0.25,2.302-0.749c2.962-2.125,72.908-53.006,72.908-111.075
		c0-13.637-2.606-23.681-8.678-34.325l13.816-12.083C172.162,27.474,172.43,25.172,171.254,23.543z M58.989,64.125l28.345,32.412
		c0.688,0.779,1.659,1.267,2.694,1.315c0.076,0.024,0.18,0.024,0.268,0.024c0.947,0,1.879-0.354,2.569-0.98l40.082-35.092
		c0.907,3.583,2.113,7.134,2.113,10.854c0,24.914-20.295,45.167-45.188,45.167c-24.892,0-45.181-20.253-45.181-45.167
		s20.289-45.161,45.181-45.161c12.081,0,21.178,3.873,28.923,11.062L92.835,60.343L81.254,46.229
		c-1.303-1.635-3.833-1.903-5.44-0.594L59.549,58.443c-0.847,0.673-1.382,1.653-1.489,2.725
		C57.911,62.24,58.258,63.321,58.989,64.125z M157.676,75.229c0,48.46-55.491,93.818-67.429,103.02
		c-12.005-8.86-67.349-52.452-67.349-103.02c0-37.15,30.23-67.374,67.398-67.374c16.225,0,31.643,5.733,43.882,16.246l-9.719,8.242
		c-9.219-8.555-20.557-12.714-34.599-12.714c-29.225,0-53.006,23.781-53.006,53.024s23.781,53.027,53.006,53.027
		c29.229,0,53.013-23.777,53.013-53.027c0-5.736-1.425-11.28-3.228-16.724l11.046-9.646
		C155.465,55.207,157.676,63.567,157.676,75.229z M90.671,88.402l-23.05-26.348l10.007-7.864L89.28,68.399
		c0.648,0.807,1.622,1.324,2.694,1.431c0.998,0.128,2.07-0.231,2.874-0.913l61.829-51.932l6.107,8.306L90.671,88.402z"/>
</g>
</svg>