<?xml version="1.0" encoding="iso-8859-1"?>
<!-- Uploaded to: SVG Repo, www.svgrepo.com, Generator: SVG Repo Mixer Tools -->
<!DOCTYPE svg PUBLIC "-//W3C//DTD SVG 1.1//EN" "http://www.w3.org/Graphics/SVG/1.1/DTD/svg11.dtd">
<svg fill="#000000" version="1.1" id="Capa_1" xmlns="http://www.w3.org/2000/svg" xmlns:xlink="http://www.w3.org/1999/xlink" 
	 width="800px" height="800px" viewBox="0 0 135.739 135.739"
	 xml:space="preserve">
<g>
	<path d="M112.619,1.626H23.121c-0.862,0-1.559,0.697-1.559,1.559v64.947v0.523v64.947c0,0.864,0.697,1.559,1.559,1.559h89.499
		c0.858,0,1.559-0.694,1.559-1.559V68.655v-0.523V3.185C114.178,2.323,113.478,1.626,112.619,1.626z M111.061,4.744v61.829H24.68
		V4.744H111.061L111.061,4.744z M24.68,132.043V70.214h86.381v61.829H24.68z M3.118,2.138v131.465c0,0.864-0.7,1.559-1.559,1.559
		c-0.862,0-1.559-0.694-1.559-1.559V2.138c0-0.862,0.697-1.559,1.559-1.559C2.417,0.579,3.118,1.276,3.118,2.138z M135.739,2.138
		v131.465c0,0.864-0.693,1.559-1.559,1.559c-0.858,0-1.559-0.694-1.559-1.559V2.138c0-0.862,0.7-1.559,1.559-1.559
		C135.046,0.579,135.739,1.276,135.739,2.138z M117.691,1.114h11.953v10.27h-11.953V1.114z M117.691,18.572h11.953v10.272h-11.953
		V18.572z M117.691,36.039h11.953v10.269h-11.953V36.039z M117.691,53.484h11.953v10.27h-11.953V53.484z M117.691,70.951h11.953
		v10.26h-11.953V70.951z M117.691,88.408h11.953v10.267h-11.953V88.408z M117.691,105.885h11.953v10.26h-11.953V105.885z
		 M117.691,123.336h11.953v10.267h-11.953V123.336z M6.619,1.114h11.956v10.27H6.619V1.114z M6.619,18.572h11.956v10.272H6.619
		V18.572z M6.619,36.039h11.956v10.269H6.619V36.039z M6.619,53.484h11.956v10.27H6.619V53.484z M6.619,70.951h11.956v10.26H6.619
		V70.951z M6.619,88.408h11.956v10.267H6.619V88.408z M6.619,105.885h11.956v10.26H6.619V105.885z M6.619,123.336h11.956v10.267
		H6.619V123.336z"/>
</g>
</svg>